<?xml version="1.0" encoding="UTF-8" standalone="no"?><!DOCTYPE svg PUBLIC "-//W3C//DTD SVG 1.1//EN" "http://www.w3.org/Graphics/SVG/1.1/DTD/svg11.dtd"><svg width="100%" height="100%" viewBox="0 0 1563 1563" version="1.1" xmlns="http://www.w3.org/2000/svg" xmlns:xlink="http://www.w3.org/1999/xlink" xml:space="preserve" xmlns:serif="http://www.serif.com/" style="fill-rule:evenodd;clip-rule:evenodd;stroke-linejoin:round;stroke-miterlimit:2;"><g transform="matrix(2.891634,0,0,2.891634,7.722834,119.280803)"><g transform="matrix(0.98,0,0,0.93,4.13698,23.143992)"><g transform="matrix(38.866667,0,0,38.866667,366.435303,330.628456)"></g><text x="206.849px" y="330.628px" style="font-family:'29LTBukra-Bd', '29LT Bukra';font-weight:700;font-size:38.867px;fill:#00ff84;">s<tspan x="229.44px " y="330.628px ">t</tspan>udio<tspan x="343.504px " y="330.628px ">s</tspan></text></g><path d="M328.249,331.798l-0.038,0c-3.759,0 -6.868,-1.105 -9.334,-3.294c-2.495,-2.214 -3.746,-5.047 -3.746,-8.503l0,-0.035c0,-3.477 1.256,-6.345 3.761,-8.607c2.481,-2.24 5.585,-3.37 9.32,-3.37l0.034,0l0.002,0.663l-0.036,0c-3.555,0 -6.513,1.066 -8.875,3.199c-2.362,2.133 -3.542,4.838 -3.542,8.115l0,0.036c0,3.253 1.174,5.922 3.523,8.006c2.349,2.084 5.313,3.127 8.894,3.127l0.031,0l0.007,0.663Zm0,-23.146l0,-0.663c3.785,0 6.92,1.124 9.412,3.349c2.519,2.25 3.783,5.125 3.783,8.628l0,0.035c0,3.482 -1.259,6.322 -3.768,8.523c-2.478,2.174 -5.617,3.273 -9.426,3.273l0,-0.663c3.631,0 6.628,-1.036 8.989,-3.109c2.362,-2.072 3.542,-4.747 3.542,-8.024l0,-0.036c0,-3.301 -1.187,-6.012 -3.561,-8.133c-2.374,-2.121 -5.364,-3.181 -8.97,-3.181Zm0,6.326l0,0.663c-1.381,0 -2.5,0.397 -3.346,1.222c-0.836,0.814 -1.247,1.851 -1.247,3.104l0,0.035c0,1.226 0.409,2.236 1.241,3.026c0.848,0.805 1.969,1.191 3.353,1.191l0.03,0l0.004,0.663l-0.034,0c-1.574,0 -2.844,-0.458 -3.809,-1.374c-0.965,-0.916 -1.447,-2.084 -1.447,-3.506l0,-0.036c0,-1.446 0.482,-2.639 1.447,-3.578c0.965,-0.94 2.235,-1.41 3.809,-1.41Zm0,0.663l0.002,-0.663l0.036,0c1.6,0 2.888,0.47 3.866,1.41c0.978,0.94 1.466,2.133 1.466,3.578l0,0.036c0,1.422 -0.489,2.59 -1.466,3.506c-0.978,0.916 -2.266,1.374 -3.866,1.374l0,-0.663c1.41,0 2.551,-0.387 3.413,-1.194c0.842,-0.789 1.257,-1.798 1.257,-3.023l0,-0.035c0,-1.252 -0.417,-2.287 -1.263,-3.101c-0.86,-0.827 -1.999,-1.225 -3.407,-1.225l-0.038,0Zm-51.741,4.505l0,-0.035c0,-3.708 1.197,-6.604 3.555,-8.701c2.332,-2.074 5.489,-3.132 9.487,-3.132c0.793,0 1.549,0.027 2.27,0.082l0,-7.046l0.663,-0.663l7.161,0l0.663,0.663l0,28.483l-0.477,0.636c-3.698,1.08 -7.125,1.617 -10.28,1.617c-4.053,0 -7.224,-1.073 -9.531,-3.173c-2.329,-2.121 -3.511,-5.027 -3.511,-8.732Zm15.975,-18.832l0,7.771c-0.914,-0.096 -1.892,-0.145 -2.933,-0.145c-3.809,0 -6.824,0.988 -9.046,2.964c-2.222,1.976 -3.333,4.711 -3.333,8.205l0,0.036c0,3.494 1.098,6.241 3.295,8.241c2.196,2 5.225,3 9.084,3c3.098,0 6.462,-0.53 10.094,-1.59l0,-28.483l-7.161,0Zm-8.239,19.758l0.637,-0.637c0,1.387 0.377,2.482 1.174,3.27c0.799,0.79 1.906,1.164 3.305,1.164c0.898,0 1.718,-0.044 2.46,-0.132l-0,-8.589c-0.892,-0.145 -1.725,-0.218 -2.498,-0.218c-1.416,0 -2.521,0.374 -3.295,1.172c-0.777,0.8 -1.146,1.892 -1.146,3.261l-0.642,0.642c-0.014,-0.185 -0.021,-0.375 -0.021,-0.57l0,-0.072c0,-1.566 0.444,-2.807 1.333,-3.723c0.889,-0.916 2.146,-1.374 3.771,-1.374c0.965,0 2.019,0.108 3.161,0.325l0,9.723c-0.914,0.145 -1.955,0.217 -3.123,0.217c-1.6,0 -2.857,-0.452 -3.771,-1.355c-0.788,-0.779 -1.237,-1.814 -1.345,-3.104Zm-0.005,-0.067l0.642,-0.64l0,0.069l-0.637,0.639c-0.002,-0.022 -0.004,-0.045 -0.005,-0.067Zm-67.393,-5.745c0.011,0.102 0.076,0.173 0.18,0.224c0.339,0.166 0.941,0.342 1.788,0.539c0.283,0.049 0.508,0.099 0.667,0.147c0.192,0.029 0.455,0.085 0.788,0.17c0.33,0.084 0.576,0.152 0.73,0.2c5.207,1.252 7.73,3.812 7.73,7.509c0,2.632 -0.921,4.581 -2.714,5.87c-1.711,1.23 -4.336,1.878 -7.891,1.878c-3.645,0 -7.081,-0.668 -10.309,-2.002l-0.37,-0.838l1.866,-5.169l0.864,-0.393c2.582,1.003 5.015,1.509 7.302,1.509c1.222,0 2.108,-0.061 2.659,-0.197c0.211,-0.052 0.372,-0.095 0.372,-0.26c0,-0.157 -0.046,-0.276 -0.177,-0.334c-0.365,-0.162 -1.277,-0.409 -2.734,-0.755c-0.232,-0.049 -0.577,-0.128 -1.035,-0.237c-0.45,-0.107 -0.787,-0.184 -1.023,-0.234c-4.927,-1.123 -7.334,-3.725 -7.334,-7.695c0,-2.254 0.907,-4.024 2.716,-5.311c1.718,-1.223 4.127,-1.858 7.241,-1.858c3.884,0 7.082,0.672 9.601,1.991l0.31,0.829l-2.019,5.169l-0.894,0.362c-2.114,-0.969 -4.154,-1.458 -6.123,-1.458c-0.856,0 -1.5,0.062 -1.928,0.208c-0.102,0.035 -0.222,0.108 -0.264,0.135Zm1.278,15.874c3.377,0 5.878,-0.584 7.504,-1.753c1.625,-1.169 2.438,-2.946 2.438,-5.332c0,-3.422 -2.412,-5.711 -7.237,-6.868c-0.152,-0.048 -0.394,-0.114 -0.724,-0.199c-0.33,-0.084 -0.584,-0.139 -0.762,-0.163c-0.152,-0.048 -0.368,-0.096 -0.648,-0.145c-0.94,-0.217 -1.593,-0.416 -1.962,-0.596c-0.368,-0.181 -0.552,-0.464 -0.552,-0.849c0,-0.651 0.952,-0.976 2.857,-0.976c2.057,0 4.19,0.506 6.399,1.518l2.019,-5.169c-2.438,-1.277 -5.536,-1.916 -9.294,-1.916c-2.946,0 -5.231,0.578 -6.856,1.735c-1.625,1.157 -2.438,2.747 -2.438,4.771c0,3.663 2.273,6.012 6.818,7.048c0.229,0.048 0.571,0.127 1.028,0.235c0.457,0.108 0.8,0.187 1.028,0.235c1.524,0.361 2.476,0.627 2.857,0.795c0.381,0.169 0.571,0.482 0.571,0.94c0,0.458 -0.292,0.759 -0.876,0.904c-0.584,0.145 -1.524,0.217 -2.819,0.217c-2.362,0 -4.875,-0.518 -7.542,-1.554l-1.866,5.169c3.149,1.301 6.501,1.952 10.056,1.952Zm132.644,-15.874c0.011,0.102 0.076,0.173 0.18,0.224c0.339,0.166 0.941,0.342 1.788,0.539c0.283,0.049 0.508,0.099 0.667,0.147c0.192,0.029 0.455,0.085 0.788,0.17c0.33,0.084 0.576,0.152 0.73,0.2c5.207,1.252 7.73,3.812 7.73,7.509c0,2.632 -0.921,4.581 -2.714,5.87c-1.711,1.23 -4.336,1.878 -7.891,1.878c-3.645,0 -7.081,-0.668 -10.309,-2.002l-0.37,-0.838l1.866,-5.169l0.864,-0.393c2.582,1.003 5.015,1.509 7.302,1.509c1.222,0 2.108,-0.061 2.659,-0.197c0.211,-0.052 0.372,-0.095 0.372,-0.26c0,-0.157 -0.046,-0.276 -0.177,-0.334c-0.365,-0.162 -1.277,-0.409 -2.734,-0.755c-0.232,-0.049 -0.577,-0.128 -1.035,-0.237c-0.45,-0.107 -0.787,-0.184 -1.023,-0.234c-4.927,-1.123 -7.334,-3.725 -7.334,-7.695c0,-2.254 0.907,-4.024 2.716,-5.311c1.718,-1.223 4.127,-1.858 7.241,-1.858c3.884,0 7.082,0.672 9.601,1.991l0.31,0.829l-2.019,5.169l-0.894,0.362c-2.114,-0.969 -4.154,-1.458 -6.123,-1.458c-0.856,0 -1.5,0.062 -1.928,0.208c-0.102,0.035 -0.222,0.108 -0.264,0.135Zm1.278,15.874c3.377,0 5.878,-0.584 7.504,-1.753c1.625,-1.169 2.438,-2.946 2.438,-5.332c0,-3.422 -2.412,-5.711 -7.237,-6.868c-0.152,-0.048 -0.394,-0.114 -0.724,-0.199c-0.33,-0.084 -0.584,-0.139 -0.762,-0.163c-0.152,-0.048 -0.368,-0.096 -0.648,-0.145c-0.94,-0.217 -1.593,-0.416 -1.962,-0.596c-0.368,-0.181 -0.552,-0.464 -0.552,-0.849c0,-0.651 0.952,-0.976 2.857,-0.976c2.057,0 4.19,0.506 6.399,1.518l2.019,-5.169c-2.438,-1.277 -5.536,-1.916 -9.294,-1.916c-2.946,0 -5.231,0.578 -6.856,1.735c-1.625,1.157 -2.438,2.747 -2.438,4.771c0,3.663 2.273,6.012 6.818,7.048c0.229,0.048 0.571,0.127 1.028,0.235c0.457,0.108 0.8,0.187 1.028,0.235c1.524,0.361 2.476,0.627 2.857,0.795c0.381,0.169 0.571,0.482 0.571,0.94c0,0.458 -0.292,0.759 -0.876,0.904c-0.584,0.145 -1.524,0.217 -2.819,0.217c-2.362,0 -4.875,-0.518 -7.542,-1.554l-1.866,5.169c3.149,1.301 6.501,1.952 10.056,1.952Zm-111.287,0.157c-2.861,0 -4.896,-0.641 -6.134,-1.829c-1.25,-1.2 -1.918,-3.091 -1.918,-5.702l-0,-7.325l-2.994,0l-0.663,-0.663l0,-6.217l0.663,-0.663l2.994,-0l0,-6.783l0.663,-0.663l7.123,0l0.663,0.663l0,6.783l7.107,0l0.663,0.663l0,6.217l-0.663,0.663l-7.107,0l0,5.265c0,0.698 0.145,1.219 0.522,1.532c0.418,0.347 1.096,0.48 2.014,0.48l4.609,0l0.663,0.663l0,6.253l-0.663,0.663l-7.542,0Zm-0,-0.663l7.542,0l0,-6.253l-4.609,0c-1.117,0 -1.93,-0.211 -2.438,-0.633c-0.508,-0.422 -0.762,-1.102 -0.762,-2.042l0,-5.928l7.77,0l0,-6.217l-7.77,0l0,-7.446l-7.123,0l0,7.446l-3.657,0l0,6.217l3.657,0l0,7.988c0,2.386 0.571,4.127 1.714,5.223c1.143,1.096 3.034,1.645 5.675,1.645Zm33.458,-21.073l0,20.422l-0.548,0.653c-4.415,0.78 -7.958,1.167 -10.628,1.167c-4.485,0 -7.605,-1.109 -9.399,-3.213c-1.223,-1.433 -1.853,-3.339 -1.853,-5.728l0,-13.302l0.663,-0.663l7.123,0l0.663,0.663l0,11.928c0,0.87 0.168,1.497 0.619,1.839c0.503,0.381 1.32,0.534 2.434,0.534c0.719,0 1.532,-0.065 2.439,-0.195l-0,-14.106l0.663,-0.663l7.161,0l0.663,0.663Zm-0.663,0l-7.161,0l0,14.675c-1.175,0.193 -2.209,0.289 -3.102,0.289c-1.302,0 -2.247,-0.223 -2.835,-0.669c-0.587,-0.446 -0.881,-1.235 -0.881,-2.368l0,-11.928l-7.123,0l0,13.302c0,5.518 3.53,8.277 10.589,8.277c2.641,0 6.145,-0.386 10.513,-1.157l0,-20.422Zm35.042,-1.903c-1.226,0 -2.251,-0.323 -3.083,-0.946c-0.888,-0.666 -1.351,-1.626 -1.351,-2.898c0,-1.149 0.437,-2.084 1.306,-2.805c0.823,-0.684 1.863,-1.039 3.128,-1.039c1.237,0 2.265,0.354 3.09,1.039c0.869,0.722 1.306,1.656 1.306,2.805c0,1.272 -0.463,2.233 -1.351,2.898c-0.833,0.624 -1.846,0.946 -3.045,0.946Zm0,-0.663c1.041,0 1.924,-0.271 2.647,-0.813c0.724,-0.542 1.086,-1.331 1.086,-2.368c0,-0.94 -0.356,-1.705 -1.067,-2.295c-0.711,-0.59 -1.6,-0.886 -2.666,-0.886c-1.092,0 -1.993,0.295 -2.704,0.886c-0.711,0.59 -1.067,1.355 -1.067,2.295c0,1.036 0.362,1.825 1.086,2.368c0.724,0.542 1.619,0.813 2.685,0.813Zm-4.282,23.639l0,-21.073l0.663,-0.663l7.161,0l0.663,0.663l0,21.073l-0.663,0.663l-7.161,0l-0.663,-0.663Zm0.663,-0l7.161,0l0,-21.073l-7.161,0l0,21.073Z" style="fill:#023469;"/></g><g transform="matrix(34.80234,0,0,34.80234,-5799.381944,-7776.599889)"><g transform="matrix(0.88,0,0,0.94,20.413401,15.037164)"><text x="170.112px" y="250.619px" style="font-family:'29LTBukra-Bd', '29LT Bukra';font-weight:700;font-size:10.16px;fill:#fff;stroke:#19587a;stroke-width:0.1px;">T</text></g><g transform="matrix(0.88,0,0,0.94,21.169768,15.053528)"><g transform="matrix(9.682184,0,0,9.682184,213.867882,250.892128)"></g><text x="176.415px" y="250.892px" style="font-family:'29LTBukra-Bd', '29LT Bukra';font-weight:700;font-size:9.682px;fill:#fff;stroke:#19587a;stroke-width:0.1px;">r<tspan x="180.578px 183.454px 191.19px 197.086px 201.155px 207.487px " y="250.892px 250.892px 250.892px 250.892px 250.892px 250.892px ">iGarde</tspan></text></g></g><path d="M805.751,674.643l-100.558,-116.646l131.938,-64.942c-17.864,31.374 -71.013,50.383 -109.302,71.926c35.019,40.242 84.498,84.401 77.922,109.662Z" style="fill:#00ff6f;stroke:#090074;stroke-opacity:0.87;stroke-width:1.25px;stroke-linecap:round;stroke-miterlimit:1.5;"/><path d="M928.875,502.592l89.284,125.754l-147.053,67.01c23.009,-33.106 77.836,-50.137 120.881,-72.453c-32.787,-53.085 -68.674,-102.122 -63.112,-120.311Z" style="fill:#00ff6f;stroke:#090074;stroke-opacity:0.87;stroke-width:1.25px;stroke-linecap:round;stroke-miterlimit:1.5;"/><path d="M907.174,470.884c-37.134,98.846 -57.598,168.951 -93.121,255.903c25.586,-83.491 54.475,-171.146 84.094,-259.719c-4.797,-0.133 -19.287,-18.598 -20.039,-26.339c12.091,0.172 24.811,3.531 26.915,4.111c5.873,-10.612 7.042,-16.671 17.226,-37.098l7.124,2.271c-4.04,15.392 -12.055,35.57 -13.266,38.619c1.554,0.667 13.142,4.723 21.748,8.422c3.283,5.224 -20.291,15.217 -30.68,13.83Z" style="fill:#00ff84;stroke:#090074;stroke-opacity:0.87;stroke-width:1.25px;stroke-linecap:square;stroke-linejoin:bevel;stroke-miterlimit:1.5;"/></svg>